<?xml version="1.0" encoding="UTF-8" standalone="no"?><svg xmlns="http://www.w3.org/2000/svg" width="825" height="300" viewBox="0 0 825 300"><g><path fill="#d41f26" d="M149.903 224.823v74.99l74.928-74.99h599.644V0H112.426L0 224.823z"/><g fill="#fefefe"><path d="M225.01 149.835h12.502V74.634h-12.501zm14.212-91.61c0 4.533-3.893 7.81-8.108 7.81-4.062 0-7.664-3.277-7.664-7.81 0-4.84 3.602-7.97 7.664-7.97 4.215 0 8.108 3.13 8.108 7.97zM264.375 98.554v51.281H251.71V74.476h9.984l1.731 7.675c2.809-6.577 8.883-8.132 13.105-8.452 13.581-.78 24.832 11.894 24.832 24.855v51.281h-12.659V98.554c0-6.564-5.601-12.194-12.322-12.194-6.558 0-12.005 5.63-12.005 12.194M327.044 149.95h-12.49V68.181c0-14.537 13.89-25.165 29.662-25.165v12.507c-9.196 0-17.172 5.785-17.172 12.658V91.32h15.462v12.504h-15.462zM393.64 98.515c0-7.974-6.397-12.196-12.797-12.196-6.246 0-12.801 4.222-12.801 12.196v27.343c0 7.985 6.555 12.047 12.8 12.047 6.4 0 12.799-4.062 12.799-12.047zm12.646 27.343c0 16.737-12.798 24.869-25.443 24.869-12.801 0-25.292-8.132-25.292-24.869V98.515c0-16.883 12.646-24.7 25.292-24.7 12.798 0 25.443 7.817 25.443 24.7zM432.206 127.126c-.457 7.339 6.256 10.615 12.798 10.615 5.935 0 11.87-4.062 11.87-10.46V96.638c0-5.63-6.557-9.997-12.18-10.162-6.403 0-12.488 4.377-12.488 10.627zm12.17 53.607c-5.439 0-13.725-2.966-19.813-8.45l7.186-9.994c4.514 3.741 9.674 5.628 12.627 5.628 6.87 0 12.498-5.318 12.498-11.884v-13.281c-2.172 6.098-8.42 7.661-12.18 7.661-13.108 0-25.131-8.607-25.131-23.287V97.103c0-12.506 12.186-24.39 25.13-23.289 5 .468 11.249 2.352 13.282 9.55l1.235-8.772h10.305v81.441c0 14.23-11.708 24.7-25.139 24.7zM483.468 150.032V75.154h10.457l1.409 7.661c4.374-11.109 16.392-11.264 24.823-4.532l-4.37 11.405c-7.345-5.165-18.58-3.896-19.82 6.4v53.944zM549.376 138.154c5.925 0 12.17-4.845 12.17-10.464v-7.654c0-6.259-5.446-10.636-12.17-10.636-6.555 0-12.03 5.329-12.03 12.039v4.364c0 6.742 5.475 12.351 12.03 12.351m-24.668-12.351v-4.364c0-13.126 9.994-24.393 24.35-24.393 5.01 0 11.088 3.29 12.809 8.3l-.32-6.574c0-6.563-5.447-12.04-12.17-12.04-3.12 0-7.641 1.878-11.88 5.94l-6.846-10.463c5.304-4.852 12.632-8.284 18.725-8.284 13.274 0 24.813 11.085 24.813 24.847v51.122h-10.126l-1.269-7.996c-1.558 6.598-9.524 8.926-13.418 8.926-13.42 0-24.668-11.563-24.668-25.021M600.518 149.893h-12.475V74.695h9.813l1.574 7.351c3.127-6.093 8.9-8.121 13.424-8.29 6.25-.152 14.51 2.812 18.4 12.51 3.762-9.698 11.405-12.51 18.604-12.51 13.42 0 24.348 10.949 24.348 24.856v51.281h-12.501V98.612c.173-17.036-24.348-16.256-24.348 0v51.281h-12.488V98.612c0-6.564-5.46-12.191-12.336-12.191-6.71 0-12.015 5.627-12.015 12.19z"/></g></g></svg>